<?xml version="1.0" encoding="utf-8"?>
<!-- Generator: Adobe Illustrator 16.0.0, SVG Export Plug-In . SVG Version: 6.00 Build 0)  -->
<!DOCTYPE svg PUBLIC "-//W3C//DTD SVG 1.1//EN" "http://www.w3.org/Graphics/SVG/1.1/DTD/svg11.dtd">
<svg version="1.1" id="Warstwa_1" xmlns="http://www.w3.org/2000/svg" xmlns:xlink="http://www.w3.org/1999/xlink" x="0px" y="0px"
	 width="54.787px" height="25.329px" viewBox="0 0 54.787 25.329" enable-background="new 0 0 54.787 25.329" xml:space="preserve">
<path fill="#47C4AA" d="M0.062,10.723C0.26,9.521,0.914,8.469,1.904,7.759l1.271-0.911c0.11-0.08,0.267-0.055,0.348,0.057
	l0.003,0.003l1.862-1.335c0.11-0.08,0.267-0.055,0.348,0.057l0.003,0.003l4.658-3.34c0.054-0.039,0.121-0.056,0.187-0.043
	c0.065,0.011,0.124,0.047,0.162,0.101l0.003,0.003l1.196-0.858c0.073-0.053,0.169-0.062,0.252-0.023
	c0.223,0.103,0.382-0.058,0.583-0.256c0.162-0.16,0.346-0.341,0.588-0.41c0.091-0.026,0.185,0,0.248,0.066
	c0.027,0.027,0.048,0.044,0.056,0.055c0.021-0.021,0.048-0.054,0.067-0.079c0.074-0.092,0.181-0.223,0.344-0.263
	c0.031-0.025,0.064-0.053,0.098-0.081c0.132-0.111,0.281-0.236,0.445-0.293c0.143-0.05,0.209-0.031,0.374-0.009
	c0.001,0,0.019,0,0.037,0C15.061,0.086,15.161,0,15.282,0h0.007c0.002,0,0.004,0,0.007,0s0.007,0,0.01,0v0
	c0.007,0,0.756,0.054,0.92,0.287c0.005,0.007,0.448,0.624,0.566,0.788c0.359,0.241,1.264,1.155,1.432,1.573
	c0.393,0.531,0.724,0.996,0.832,1.324c0.029,0.089,0.006,0.186-0.057,0.252c0.021,0.071,0.027,0.148,0.005,0.227
	c-0.046,0.166-0.186,0.233-0.263,0.27c0,0-0.001,0-0.001,0c0.038,0.107,0.044,0.207-0.006,0.302
	c-0.039,0.075-0.104,0.127-0.186,0.151l-0.407,0.299c-0.243,0.19-0.546,0.411-0.921,0.342l-0.916,0.658
	c0.097,0.025,0.191,0.062,0.285,0.098c0.124,0.047,0.252,0.097,0.339,0.097c0.001,0,0.081-0.007,0.082-0.007
	c0.371,0.004,0.759,0.119,1.133,0.23c0.577,0.171,1.124,0.301,1.471,0.1c0.053-0.031,0.115-0.042,0.175-0.029l0.485,0.1l0.001-0.003
	c0.013-0.065,0.052-0.122,0.106-0.159c0.056-0.037,0.123-0.049,0.188-0.037l6.458,1.311l0.001-0.003
	c0.028-0.136,0.163-0.221,0.295-0.195l6.581,1.338c0.064,0.013,0.122,0.052,0.158,0.107c0.037,0.056,0.051,0.123,0.037,0.188
	L34.1,9.61l3.534,0.716c0.064,0.013,0.122,0.052,0.158,0.107c0.037,0.056,0.051,0.124,0.037,0.188l-0.001,0.003l8.652,1.757
	c0.065,0.013,0.122,0.052,0.159,0.108s0.049,0.124,0.035,0.189v0.001l2.314,0.47c0.072,0.015,0.133,0.06,0.169,0.124
	c0.167,0.303,0.604,0.345,1.067,0.39c0.33,0.032,0.672,0.065,0.961,0.198c0.087,0.039,0.144,0.125,0.146,0.221
	c0.002,0.107,0.002,0.129,0.341,0.137c0.181,0.004,0.383,0.009,0.55,0.105l1.068,0.216c0.048,0.01,0.098,0.021,0.139,0.036
	c0.073,0.025,0.126,0.099,0.149,0.178c0.083,0.037,0.142,0.092,0.187,0.133c0.018,0.018,0.037,0.037,0.062,0.055
	c0.046,0.035,0.062,0.037,0.116,0.047c0.049,0.01,0.115,0.021,0.2,0.057c0.103,0.045,0.698,0.459,0.638,0.83l-0.189,0.928
	c0.133,0.447,0.201,1.734-0.06,2.176c-0.11,0.63-0.231,1.215-0.462,1.52c-0.058,0.078-0.153,0.115-0.25,0.096l-0.051-0.012
	c-0.113,0.156-0.265,0.186-0.36,0.186c-0.104,0-0.2-0.033-0.276-0.059c-0.053-0.018-0.096-0.051-0.127-0.094
	c-0.1,0.203-0.317,0.344-0.547,0.218l-0.793-0.155c-0.448-0.077-0.951-0.164-1.273-0.523l-2.227-0.451
	c-0.136-0.027-0.223-0.159-0.196-0.295l0.001-0.004l-0.609-0.124c-0.064-0.013-0.122-0.052-0.158-0.107
	c-0.037-0.056-0.051-0.122-0.037-0.188l0.001-0.002l-3.167-0.645c-0.135-0.027-0.222-0.158-0.195-0.294l0.002-0.004l-7.679-1.56
	c-0.128-0.026-0.21-0.168-0.193-0.299L24.64,13.886c-0.443-0.021-0.907-0.15-1.355-0.275c-0.716-0.199-1.403-0.358-1.878-0.162
	c-0.02,0.008-0.04,0.014-0.062,0.017c-0.236,0.032-0.485-0.054-0.72-0.137c-0.251-0.089-0.468-0.237-0.622-0.017
	c-0.058,0.082-0.156,0.122-0.254,0.102l-0.568-0.114c-0.201,0.019-0.399-0.055-0.588-0.126c-0.124-0.048-0.252-0.097-0.339-0.097
	c-0.033,0-0.067,0-0.114,0.088c-0.052,0.098-0.165,0.153-0.271,0.127l-0.356-0.077c-0.794-0.173-1.521-0.276-1.993,0.041
	c-0.045,0.031-0.099,0.051-0.154,0.042c-1.139-0.067-2.252-0.128-3.354-0.128c-1.325,0-2.461,0.091-3.471,0.279
	c-0.033,0.006-0.064,0.007-0.096,0l-0.34-0.07L8.2,13.513c0.243,0.212,0.405,0.5,0.562,0.779c0.228,0.404,0.425,0.754,0.808,0.812
	c0.024,0.004,0.049,0.012,0.072,0.023c0.2,0.098,0.285,0.297,0.353,0.456c0.106,0.247,0.085,0.237,0.231,0.183
	c0.108-0.037,0.224,0,0.288,0.09l0.205,0.287c0.147,0.094,0.211,0.257,0.26,0.38c0.018,0.048,0.049,0.126,0.048,0.136
	c0.005,0,0.036-0.002,0.103-0.033c0.109-0.051,0.238-0.016,0.308,0.082l0.139,0.199c0.309,0.455,0.521,0.734,1.011,0.734
	c0.001,0,0.001,0,0.002,0c0.064-0.008,0.131,0.02,0.18,0.064c1.275,1.153,2.361,2.082,3.744,2.665
	c0.043,0.019,0.079,0.048,0.106,0.085l0.575,0.801c0.012,0.019,0.022,0.037,0.029,0.059c0.087,0.235-0.08,0.389-0.197,0.47
	c-0.02,0.046-0.034,0.091-0.05,0.134c-0.087,0.248-0.184,0.527-0.738,0.933c-0.25,0.495-1.029,1.083-2.506,1.895
	c-0.31,0.167-0.535,0.267-0.719,0.317c-0.245,0.184-0.437,0.141-0.538,0.053c-0.037,0.029-0.09,0.074-0.162,0.143
	c-0.047,0.045-0.108,0.07-0.173,0.07c-0.008,0-0.015-0.001-0.022-0.002c-0.072-0.006-0.138-0.043-0.18-0.102l-0.188-0.259
	c-0.017-0.021-0.101-0.044-0.155-0.058c-0.112-0.031-0.289-0.079-0.409-0.222c-0.24,0.042-0.374-0.13-0.438-0.245
	c-0.619-0.289-1.093-0.766-1.507-1.258c-0.289,0.092-0.448-0.139-0.496-0.229c0,0-0.013-0.019-0.023-0.034
	c-0.385,0.083-0.541-0.258-0.599-0.413c-0.016-0.041-0.038-0.104-0.026-0.104c-0.048-0.018-0.089-0.049-0.119-0.09l-0.085-0.117
	c-0.396,0.08-0.556-0.269-0.624-0.443c-0.019-0.047-0.05-0.127-0.057-0.139c-0.022-0.009-0.043-0.021-0.062-0.035
	c-0.22-0.172-0.353-0.422-0.48-0.662c-0.197-0.37-0.333-0.597-0.625-0.602c-0.079-0.002-0.152-0.039-0.199-0.104l-0.142-0.196
	l-0.002,0.001c-0.11,0.078-0.267,0.055-0.348-0.058l-2.481-3.459l-0.003,0.003c-0.111,0.078-0.267,0.055-0.348-0.057l-1.668-2.328
	C0.146,13.132-0.137,11.925,0.062,10.723z"/>
</svg>
