<?xml version="1.0" encoding="utf-8"?>
<!-- Generator: Adobe Illustrator 16.0.0, SVG Export Plug-In . SVG Version: 6.00 Build 0)  -->
<!DOCTYPE svg PUBLIC "-//W3C//DTD SVG 1.1//EN" "http://www.w3.org/Graphics/SVG/1.1/DTD/svg11.dtd">
<svg version="1.1" id="Layer_1" xmlns="http://www.w3.org/2000/svg" xmlns:xlink="http://www.w3.org/1999/xlink" x="0px" y="0px"
	 width="141.684px" height="65.501px" viewBox="0 0 141.684 65.501" enable-background="new 0 0 141.684 65.501"
	 xml:space="preserve">
<path fill="#2B8676" d="M141.524,27.727c-0.515-3.106-2.207-5.829-4.768-7.663l-3.288-2.358c-0.283-0.208-0.689-0.142-0.899,0.149
	l-0.007,0.007l-4.816-3.452c-0.283-0.207-0.689-0.144-0.899,0.146l-0.008,0.007l-12.043-8.637c-0.142-0.101-0.313-0.146-0.485-0.114
	c-0.167,0.028-0.321,0.124-0.419,0.26l-0.007,0.01l-3.094-2.217c-0.187-0.136-0.437-0.162-0.652-0.055
	c-0.576,0.262-0.987-0.154-1.508-0.667c-0.419-0.409-0.894-0.881-1.52-1.061c-0.235-0.066-0.478,0-0.642,0.169
	c-0.068,0.068-0.124,0.116-0.144,0.144c-0.055-0.056-0.126-0.141-0.174-0.202c-0.189-0.237-0.467-0.578-0.889-0.684
	c-0.081-0.063-0.164-0.137-0.255-0.207c-0.338-0.286-0.725-0.609-1.149-0.76c-0.371-0.129-0.541-0.081-0.967-0.023
	c-0.002,0-0.05,0-0.096,0c-0.061-0.295-0.321-0.518-0.634-0.518h-0.018c-0.005,0-0.01,0-0.018,0c-0.007,0-0.018,0-0.028,0V0
	c-0.015,0-1.955,0.144-2.379,0.742c-0.01,0.021-1.157,1.617-1.462,2.041c-0.929,0.619-3.27,2.982-3.705,4.063
	c-1.015,1.374-1.872,2.576-2.152,3.425c-0.073,0.232-0.015,0.482,0.149,0.651c-0.053,0.185-0.07,0.384-0.012,0.588
	c0.119,0.43,0.479,0.604,0.679,0.7h0.002c-0.099,0.275-0.114,0.536,0.015,0.778c0.101,0.197,0.27,0.328,0.482,0.394l1.053,0.773
	c0.626,0.49,1.409,1.061,2.379,0.884l2.369,1.702c-0.25,0.063-0.492,0.159-0.735,0.252c-0.321,0.121-0.654,0.25-0.876,0.25
	c-0.005,0-0.212-0.018-0.212-0.018c-0.959,0.01-1.965,0.308-2.93,0.596c-1.495,0.439-2.909,0.778-3.806,0.257
	c-0.136-0.081-0.295-0.108-0.452-0.076l-1.252,0.257l-0.005-0.005c-0.033-0.169-0.134-0.318-0.272-0.414
	c-0.146-0.093-0.318-0.126-0.487-0.093l-16.701,3.392l-0.002-0.01c-0.071-0.351-0.419-0.571-0.763-0.505l-17.019,3.459
	c-0.164,0.036-0.315,0.137-0.406,0.278c-0.096,0.146-0.134,0.318-0.096,0.485l0.002,0.01l-9.14,1.851
	c-0.167,0.033-0.315,0.134-0.409,0.275c-0.096,0.146-0.131,0.323-0.096,0.487l0.002,0.008l-22.373,4.544
	c-0.169,0.033-0.315,0.134-0.412,0.28c-0.096,0.144-0.126,0.321-0.091,0.487v0.002L15,34.011c-0.185,0.038-0.343,0.154-0.437,0.318
	c-0.432,0.786-1.561,0.894-2.758,1.01c-0.861,0.078-1.745,0.162-2.493,0.508c-0.225,0.098-0.374,0.323-0.378,0.57
	c-0.005,0.275-0.005,0.333-0.882,0.354c-0.467,0.01-0.99,0.022-1.421,0.272l-2.763,0.558c-0.124,0.025-0.252,0.053-0.358,0.094
	c-0.189,0.063-0.326,0.255-0.386,0.459c-0.215,0.096-0.366,0.237-0.482,0.343c-0.048,0.048-0.096,0.096-0.162,0.142
	c-0.119,0.091-0.159,0.096-0.301,0.124c-0.126,0.025-0.295,0.053-0.515,0.146c-0.268,0.116-1.806,1.187-1.652,2.147l0.493,2.396
	c-0.343,1.157-0.52,4.485,0.151,5.624c0.286,1.629,0.599,3.145,1.195,3.932c0.151,0.202,0.396,0.298,0.646,0.248l0.134-0.03
	c0.291,0.404,0.685,0.478,0.929,0.478c0.271,0,0.518-0.086,0.715-0.152c0.139-0.045,0.25-0.128,0.331-0.24
	c0.257,0.525,0.82,0.889,1.414,0.563l2.051-0.401c1.159-0.2,2.459-0.424,3.293-1.351l5.758-1.169
	c0.348-0.071,0.573-0.412,0.507-0.763l-0.002-0.01l1.573-0.321c0.169-0.036,0.316-0.137,0.412-0.278
	c0.096-0.144,0.129-0.316,0.096-0.49l-0.002-0.005l8.19-1.667c0.349-0.07,0.573-0.409,0.505-0.76l-0.005-0.01l19.857-4.036
	c0.331-0.066,0.543-0.435,0.5-0.773l29.212-5.94c1.144-0.053,2.344-0.389,3.503-0.712c1.851-0.513,3.629-0.924,4.856-0.417
	c0.051,0.021,0.104,0.036,0.162,0.043c0.609,0.083,1.253-0.139,1.861-0.354c0.649-0.229,1.209-0.614,1.609-0.045
	c0.149,0.212,0.404,0.316,0.656,0.265l1.47-0.295c0.52,0.048,1.03-0.142,1.52-0.326c0.318-0.124,0.652-0.25,0.876-0.25
	c0.083,0,0.174,0,0.295,0.227c0.134,0.253,0.424,0.394,0.7,0.329l0.922-0.2c2.05-0.447,3.932-0.715,5.152,0.106
	c0.116,0.081,0.257,0.131,0.399,0.109c2.945-0.174,5.824-0.331,8.672-0.331c3.43,0,6.364,0.235,8.978,0.722
	c0.083,0.015,0.164,0.018,0.248,0l0.881-0.182l-0.248,0.349c-0.629,0.548-1.045,1.293-1.455,2.015
	c-0.588,1.045-1.096,1.95-2.089,2.099c-0.063,0.01-0.126,0.033-0.184,0.061c-0.521,0.252-0.737,0.768-0.914,1.18
	c-0.273,0.639-0.22,0.613-0.596,0.472c-0.28-0.096-0.581,0-0.748,0.232l-0.53,0.742c-0.379,0.245-0.545,0.665-0.672,0.982
	c-0.045,0.129-0.129,0.329-0.126,0.356c-0.012,0-0.091-0.005-0.265-0.086c-0.283-0.131-0.616-0.043-0.795,0.212l-0.358,0.515
	c-0.798,1.177-1.349,1.897-2.614,1.897c-0.003,0-0.003,0-0.005,0c-0.167-0.021-0.341,0.053-0.467,0.167
	c-3.295,2.98-6.104,5.384-9.683,6.892c-0.111,0.048-0.202,0.124-0.272,0.22l-1.488,2.071c-0.03,0.048-0.058,0.096-0.073,0.151
	c-0.227,0.609,0.208,1.008,0.508,1.217c0.053,0.119,0.088,0.235,0.129,0.346c0.227,0.641,0.477,1.364,1.909,2.412
	c0.646,1.28,2.662,2.801,6.48,4.902c0.803,0.432,1.384,0.689,1.858,0.818c0.637,0.477,1.131,0.366,1.394,0.139
	c0.096,0.073,0.232,0.189,0.419,0.369c0.121,0.114,0.28,0.18,0.444,0.18c0.021,0,0.041-0.003,0.058-0.005
	c0.187-0.015,0.356-0.111,0.467-0.265l0.485-0.669c0.043-0.053,0.263-0.114,0.399-0.149c0.291-0.081,0.748-0.204,1.061-0.576
	c0.619,0.109,0.964-0.336,1.131-0.634c1.601-0.745,2.826-1.98,3.896-3.253c0.748,0.237,1.159-0.358,1.283-0.591
	c0,0,0.033-0.05,0.058-0.088c0.998,0.215,1.399-0.667,1.55-1.068c0.041-0.106,0.099-0.268,0.066-0.268
	c0.126-0.048,0.232-0.129,0.308-0.235l0.222-0.301c1.023,0.205,1.437-0.697,1.611-1.146c0.05-0.121,0.131-0.328,0.149-0.358
	c0.058-0.025,0.111-0.056,0.159-0.091c0.571-0.445,0.914-1.091,1.242-1.712c0.51-0.957,0.861-1.543,1.617-1.558
	c0.202-0.005,0.394-0.101,0.515-0.268l0.366-0.508l0.005,0.002c0.285,0.202,0.689,0.144,0.901-0.149l6.415-8.945l0.007,0.008
	c0.286,0.202,0.689,0.141,0.902-0.146l4.313-6.021C141.308,33.956,142.035,30.833,141.524,27.727z"/>
</svg>
