<?xml version="1.0" encoding="utf-8"?>
<!-- Generator: Adobe Illustrator 16.0.0, SVG Export Plug-In . SVG Version: 6.00 Build 0)  -->
<!DOCTYPE svg PUBLIC "-//W3C//DTD SVG 1.1//EN" "http://www.w3.org/Graphics/SVG/1.1/DTD/svg11.dtd">
<svg version="1.1" id="Layer_1" xmlns="http://www.w3.org/2000/svg" xmlns:xlink="http://www.w3.org/1999/xlink" x="0px" y="0px"
	 width="141.684px" height="65.501px" viewBox="0 0 141.684 65.501" enable-background="new 0 0 141.684 65.501"
	 xml:space="preserve">
<path fill="#2B8676" d="M2.209,36.506l4.313,6.021c0.212,0.288,0.616,0.349,0.902,0.146l0.007-0.008l6.415,8.945
	c0.212,0.293,0.616,0.351,0.901,0.149l0.005-0.002l0.366,0.508c0.122,0.167,0.313,0.262,0.515,0.268
	c0.755,0.015,1.106,0.601,1.617,1.558c0.328,0.621,0.671,1.268,1.242,1.712c0.048,0.035,0.101,0.065,0.159,0.091
	c0.018,0.03,0.099,0.237,0.149,0.358c0.174,0.45,0.588,1.351,1.611,1.146l0.222,0.301c0.076,0.106,0.182,0.187,0.308,0.235
	c-0.033,0,0.025,0.162,0.066,0.268c0.151,0.402,0.553,1.283,1.55,1.068c0.025,0.038,0.058,0.088,0.058,0.088
	c0.124,0.232,0.536,0.828,1.283,0.591c1.071,1.273,2.295,2.508,3.896,3.253c0.167,0.298,0.513,0.743,1.131,0.634
	c0.313,0.372,0.771,0.495,1.061,0.576c0.136,0.036,0.356,0.096,0.399,0.149l0.485,0.669c0.111,0.154,0.28,0.25,0.467,0.265
	c0.018,0.002,0.038,0.005,0.058,0.005c0.164,0,0.323-0.066,0.444-0.18c0.187-0.179,0.323-0.295,0.419-0.369
	c0.263,0.228,0.757,0.338,1.394-0.139c0.475-0.129,1.056-0.387,1.858-0.818c3.819-2.101,5.834-3.622,6.48-4.902
	c1.432-1.048,1.682-1.771,1.909-2.412c0.041-0.111,0.076-0.228,0.129-0.346c0.3-0.209,0.735-0.608,0.508-1.217
	c-0.016-0.056-0.043-0.104-0.073-0.151l-1.488-2.071c-0.071-0.096-0.162-0.172-0.272-0.22c-3.579-1.508-6.387-3.912-9.683-6.892
	c-0.126-0.114-0.301-0.187-0.467-0.167c-0.002,0-0.002,0-0.005,0c-1.265,0-1.815-0.72-2.614-1.897l-0.358-0.515
	c-0.179-0.255-0.513-0.343-0.795-0.212c-0.174,0.081-0.253,0.086-0.265,0.086c0.002-0.028-0.081-0.228-0.126-0.356
	c-0.126-0.318-0.293-0.737-0.672-0.982L27.191,41c-0.167-0.232-0.467-0.329-0.748-0.232c-0.376,0.141-0.323,0.167-0.596-0.472
	c-0.177-0.412-0.394-0.927-0.914-1.18c-0.058-0.028-0.121-0.05-0.184-0.061c-0.993-0.149-1.5-1.053-2.089-2.099
	c-0.409-0.722-0.826-1.467-1.455-2.015l-0.248-0.349l0.881,0.182c0.083,0.018,0.164,0.015,0.248,0
	c2.614-0.487,5.548-0.722,8.978-0.722c2.849,0,5.728,0.157,8.672,0.331c0.142,0.022,0.283-0.028,0.399-0.109
	c1.22-0.821,3.102-0.553,5.152-0.106l0.922,0.2c0.275,0.065,0.566-0.076,0.7-0.329c0.121-0.227,0.212-0.227,0.295-0.227
	c0.225,0,0.558,0.126,0.876,0.25c0.49,0.184,1,0.374,1.52,0.326l1.47,0.295c0.252,0.051,0.507-0.053,0.656-0.265
	c0.399-0.568,0.96-0.184,1.609,0.045c0.608,0.215,1.252,0.437,1.861,0.354c0.058-0.007,0.111-0.022,0.162-0.043
	c1.228-0.507,3.005-0.096,4.856,0.417c1.159,0.323,2.359,0.659,3.503,0.712l29.212,5.94c-0.043,0.338,0.169,0.707,0.5,0.773
	l19.857,4.036l-0.005,0.01c-0.068,0.351,0.156,0.689,0.505,0.76l8.19,1.667l-0.002,0.005c-0.033,0.174,0,0.346,0.096,0.49
	c0.096,0.141,0.242,0.242,0.412,0.278l1.573,0.321l-0.002,0.01c-0.066,0.351,0.159,0.692,0.507,0.763l5.758,1.169
	c0.833,0.927,2.134,1.151,3.293,1.351l2.051,0.401c0.594,0.326,1.157-0.038,1.414-0.563c0.081,0.111,0.192,0.194,0.331,0.24
	c0.197,0.066,0.444,0.152,0.715,0.152c0.245,0,0.639-0.073,0.929-0.478l0.134,0.03c0.25,0.051,0.495-0.045,0.646-0.248
	c0.596-0.788,0.909-2.303,1.195-3.932c0.671-1.139,0.495-4.467,0.151-5.624l0.493-2.396c0.154-0.96-1.384-2.031-1.652-2.147
	c-0.22-0.093-0.389-0.121-0.515-0.146c-0.142-0.028-0.182-0.033-0.301-0.124c-0.065-0.045-0.113-0.093-0.162-0.142
	c-0.116-0.106-0.268-0.248-0.482-0.343c-0.061-0.205-0.197-0.396-0.386-0.459c-0.106-0.041-0.235-0.068-0.358-0.094l-2.763-0.558
	c-0.432-0.25-0.955-0.263-1.421-0.272c-0.876-0.021-0.876-0.079-0.882-0.354c-0.005-0.247-0.154-0.472-0.378-0.57
	c-0.748-0.346-1.632-0.43-2.493-0.508c-1.197-0.116-2.326-0.225-2.758-1.01c-0.094-0.164-0.252-0.28-0.437-0.318l-5.985-1.217
	v-0.002c0.035-0.167,0.005-0.343-0.091-0.487c-0.096-0.146-0.243-0.248-0.412-0.28l-22.373-4.544l0.002-0.008
	c0.036-0.164,0-0.341-0.096-0.487c-0.094-0.142-0.243-0.243-0.409-0.275l-9.14-1.851l0.002-0.01c0.038-0.167,0-0.338-0.096-0.485
	c-0.091-0.141-0.242-0.242-0.406-0.278l-17.019-3.459c-0.344-0.066-0.692,0.154-0.763,0.505l-0.002,0.01l-16.701-3.392
	c-0.169-0.033-0.341,0-0.487,0.093c-0.139,0.096-0.24,0.245-0.272,0.414l-0.005,0.005l-1.252-0.257
	c-0.157-0.033-0.316-0.005-0.452,0.076c-0.896,0.521-2.311,0.182-3.806-0.257c-0.965-0.288-1.97-0.586-2.93-0.596
	c0,0-0.207,0.018-0.212,0.018c-0.223,0-0.556-0.129-0.876-0.25c-0.243-0.093-0.485-0.189-0.735-0.252l2.369-1.702
	c0.97,0.177,1.753-0.394,2.379-0.884l1.053-0.773c0.212-0.066,0.381-0.197,0.482-0.394c0.129-0.242,0.114-0.502,0.015-0.778h0.002
	c0.2-0.096,0.561-0.27,0.679-0.7c0.058-0.205,0.041-0.404-0.012-0.588c0.164-0.169,0.222-0.419,0.149-0.651
	c-0.28-0.849-1.137-2.051-2.152-3.425c-0.435-1.081-2.775-3.444-3.705-4.063c-0.306-0.424-1.452-2.021-1.462-2.041
	C41.541,0.144,39.602,0,39.586,0v0.002c-0.01,0-0.021,0-0.028,0c-0.008,0-0.013,0-0.018,0h-0.018c-0.313,0-0.573,0.222-0.634,0.518
	c-0.045,0-0.093,0-0.096,0c-0.427-0.058-0.596-0.106-0.967,0.023c-0.424,0.151-0.811,0.475-1.149,0.76
	c-0.091,0.07-0.174,0.144-0.255,0.207c-0.422,0.106-0.7,0.447-0.889,0.684c-0.048,0.061-0.119,0.146-0.174,0.202
	c-0.021-0.028-0.076-0.076-0.144-0.144c-0.164-0.169-0.407-0.235-0.642-0.169c-0.626,0.179-1.101,0.651-1.52,1.061
	c-0.521,0.513-0.932,0.929-1.508,0.667c-0.215-0.106-0.465-0.081-0.652,0.055L27.8,6.083l-0.007-0.01
	c-0.099-0.136-0.252-0.232-0.419-0.26c-0.171-0.033-0.343,0.013-0.485,0.114l-12.043,8.637l-0.008-0.007
	c-0.209-0.291-0.616-0.354-0.899-0.146l-4.816,3.452l-0.007-0.007c-0.209-0.291-0.616-0.356-0.899-0.149l-3.288,2.358
	c-2.561,1.833-4.253,4.556-4.768,7.663C-0.351,30.833,0.376,33.956,2.209,36.506z"/>
</svg>
