<?xml version="1.0" encoding="utf-8"?>
<!-- Generator: Adobe Illustrator 16.0.0, SVG Export Plug-In . SVG Version: 6.00 Build 0)  -->
<!DOCTYPE svg PUBLIC "-//W3C//DTD SVG 1.1//EN" "http://www.w3.org/Graphics/SVG/1.1/DTD/svg11.dtd">
<svg version="1.1" id="Warstwa_1" xmlns="http://www.w3.org/2000/svg" xmlns:xlink="http://www.w3.org/1999/xlink" x="0px" y="0px"
	 width="54.787px" height="25.329px" viewBox="0 0 54.787 25.329" enable-background="new 0 0 54.787 25.329" xml:space="preserve">
<path fill="#47C4AA" d="M54.725,10.723c-0.198-1.202-0.853-2.254-1.843-2.964L51.61,6.848c-0.11-0.08-0.267-0.055-0.348,0.057
	L51.26,6.908l-1.862-1.335c-0.11-0.08-0.267-0.055-0.348,0.057l-0.003,0.003l-4.658-3.34c-0.054-0.039-0.121-0.056-0.187-0.043
	c-0.065,0.011-0.124,0.047-0.162,0.101l-0.003,0.003l-1.196-0.858c-0.073-0.053-0.169-0.062-0.252-0.023
	c-0.223,0.103-0.382-0.058-0.583-0.256c-0.162-0.16-0.346-0.341-0.588-0.41c-0.091-0.026-0.185,0-0.248,0.066
	c-0.027,0.027-0.048,0.044-0.056,0.055c-0.021-0.021-0.048-0.054-0.067-0.079c-0.074-0.092-0.181-0.223-0.344-0.263
	c-0.031-0.025-0.064-0.053-0.098-0.081c-0.132-0.111-0.281-0.236-0.445-0.293c-0.143-0.05-0.209-0.031-0.374-0.009
	c-0.001,0-0.019,0-0.037,0C39.726,0.086,39.625,0,39.504,0h-0.007c-0.002,0-0.004,0-0.007,0s-0.007,0-0.01,0v0
	c-0.007,0-0.756,0.054-0.92,0.287c-0.005,0.007-0.448,0.624-0.566,0.788c-0.359,0.241-1.264,1.155-1.432,1.573
	c-0.393,0.531-0.724,0.996-0.832,1.324c-0.029,0.089-0.006,0.186,0.057,0.252c-0.021,0.071-0.027,0.148-0.005,0.227
	c0.046,0.166,0.186,0.233,0.263,0.27c0,0,0.001,0,0.001,0c-0.038,0.107-0.044,0.207,0.006,0.302
	c0.039,0.075,0.104,0.127,0.186,0.151l0.407,0.299c0.243,0.19,0.546,0.411,0.921,0.342l0.916,0.658
	c-0.097,0.025-0.191,0.062-0.285,0.098c-0.124,0.047-0.252,0.097-0.339,0.097c-0.001,0-0.081-0.007-0.082-0.007
	c-0.371,0.004-0.759,0.119-1.133,0.23c-0.577,0.171-1.124,0.301-1.471,0.1c-0.053-0.031-0.115-0.042-0.175-0.029l-0.485,0.1
	l-0.001-0.003c-0.013-0.065-0.052-0.122-0.106-0.159c-0.056-0.037-0.123-0.049-0.188-0.037l-6.458,1.311l-0.001-0.003
	c-0.028-0.136-0.163-0.221-0.295-0.195l-6.581,1.338c-0.064,0.013-0.122,0.052-0.158,0.107c-0.037,0.056-0.051,0.123-0.037,0.188
	l0.001,0.003l-3.534,0.716c-0.064,0.013-0.122,0.052-0.158,0.107c-0.037,0.056-0.051,0.124-0.037,0.188l0.001,0.003l-8.652,1.757
	c-0.065,0.013-0.122,0.052-0.159,0.108s-0.049,0.124-0.035,0.189v0.001l-2.314,0.47c-0.072,0.015-0.133,0.06-0.169,0.124
	c-0.167,0.303-0.604,0.345-1.067,0.39C4.23,13.697,3.889,13.73,3.6,13.863c-0.087,0.039-0.144,0.125-0.146,0.221
	c-0.002,0.107-0.002,0.129-0.341,0.137c-0.181,0.004-0.383,0.009-0.55,0.105l-1.068,0.216c-0.048,0.01-0.098,0.021-0.139,0.036
	c-0.073,0.025-0.126,0.099-0.149,0.178c-0.083,0.037-0.142,0.092-0.187,0.133c-0.018,0.018-0.037,0.037-0.062,0.055
	c-0.046,0.035-0.062,0.037-0.116,0.047c-0.049,0.01-0.115,0.021-0.2,0.057c-0.103,0.045-0.698,0.459-0.638,0.83l0.189,0.928
	c-0.133,0.447-0.201,1.734,0.06,2.176c0.11,0.63,0.231,1.215,0.462,1.52c0.058,0.078,0.153,0.115,0.25,0.096l0.051-0.012
	c0.113,0.156,0.265,0.186,0.36,0.186c0.104,0,0.2-0.033,0.276-0.059c0.053-0.018,0.096-0.051,0.127-0.094
	c0.1,0.203,0.317,0.344,0.547,0.218l0.793-0.155c0.448-0.077,0.951-0.164,1.273-0.523l2.227-0.451
	c0.136-0.027,0.223-0.159,0.196-0.295l-0.001-0.004l0.609-0.124c0.064-0.013,0.122-0.052,0.158-0.107
	c0.037-0.056,0.051-0.122,0.037-0.188l-0.001-0.002l3.167-0.645c0.135-0.027,0.222-0.158,0.195-0.294l-0.002-0.004l7.679-1.56
	c0.128-0.026,0.21-0.168,0.193-0.299l11.296-2.297c0.443-0.021,0.907-0.15,1.355-0.275c0.716-0.199,1.403-0.358,1.878-0.162
	c0.02,0.008,0.04,0.014,0.062,0.017c0.236,0.032,0.485-0.054,0.72-0.137c0.251-0.089,0.468-0.237,0.622-0.017
	c0.058,0.082,0.156,0.122,0.254,0.102l0.568-0.114c0.201,0.019,0.399-0.055,0.588-0.126c0.124-0.048,0.252-0.097,0.339-0.097
	c0.033,0,0.067,0,0.114,0.088c0.052,0.098,0.165,0.153,0.271,0.127l0.356-0.077c0.794-0.173,1.521-0.276,1.993,0.041
	c0.045,0.031,0.099,0.051,0.154,0.042c1.139-0.067,2.252-0.128,3.354-0.128c1.325,0,2.461,0.091,3.471,0.279
	c0.033,0.006,0.064,0.007,0.096,0l0.34-0.07l-0.095,0.135c-0.243,0.212-0.405,0.5-0.562,0.779c-0.228,0.404-0.425,0.754-0.808,0.812
	c-0.024,0.004-0.049,0.012-0.072,0.023c-0.2,0.098-0.285,0.297-0.353,0.456c-0.106,0.247-0.085,0.237-0.231,0.183
	c-0.108-0.037-0.224,0-0.288,0.09l-0.205,0.287c-0.147,0.094-0.211,0.257-0.26,0.38c-0.018,0.048-0.049,0.126-0.048,0.136
	c-0.005,0-0.036-0.002-0.103-0.033c-0.109-0.051-0.238-0.016-0.308,0.082l-0.139,0.199c-0.309,0.455-0.521,0.734-1.011,0.734
	c-0.001,0-0.001,0-0.002,0c-0.064-0.008-0.131,0.02-0.18,0.064c-1.275,1.153-2.361,2.082-3.744,2.665
	c-0.043,0.019-0.079,0.048-0.106,0.085l-0.575,0.801c-0.012,0.019-0.022,0.037-0.029,0.059c-0.087,0.235,0.08,0.389,0.197,0.47
	c0.02,0.046,0.034,0.091,0.05,0.134c0.087,0.248,0.184,0.527,0.738,0.933c0.25,0.495,1.029,1.083,2.506,1.895
	c0.31,0.167,0.535,0.267,0.719,0.317c0.245,0.184,0.437,0.141,0.538,0.053c0.037,0.029,0.09,0.074,0.162,0.143
	c0.047,0.045,0.108,0.07,0.173,0.07c0.008,0,0.015-0.001,0.022-0.002c0.072-0.006,0.138-0.043,0.18-0.102l0.188-0.259
	c0.017-0.021,0.101-0.044,0.155-0.058c0.112-0.031,0.289-0.079,0.409-0.222c0.24,0.042,0.374-0.13,0.438-0.245
	c0.619-0.289,1.093-0.766,1.507-1.258c0.289,0.092,0.448-0.139,0.496-0.229c0,0,0.013-0.019,0.023-0.034
	c0.385,0.083,0.541-0.258,0.599-0.413c0.016-0.041,0.038-0.104,0.026-0.104c0.048-0.018,0.089-0.049,0.119-0.09l0.085-0.117
	c0.396,0.08,0.556-0.269,0.624-0.443c0.019-0.047,0.05-0.127,0.057-0.139c0.022-0.009,0.043-0.021,0.062-0.035
	c0.22-0.172,0.353-0.422,0.48-0.662c0.197-0.37,0.333-0.597,0.625-0.602c0.079-0.002,0.152-0.039,0.199-0.104l0.142-0.196
	l0.002,0.001c0.11,0.078,0.267,0.055,0.348-0.058l2.481-3.459l0.003,0.003c0.111,0.078,0.267,0.055,0.348-0.057l1.668-2.328
	C54.641,13.132,54.923,11.925,54.725,10.723z"/>
</svg>
