<?xml version="1.0" encoding="utf-8"?>
<!-- Generator: Adobe Illustrator 16.0.0, SVG Export Plug-In . SVG Version: 6.00 Build 0)  -->
<!DOCTYPE svg PUBLIC "-//W3C//DTD SVG 1.1//EN" "http://www.w3.org/Graphics/SVG/1.1/DTD/svg11.dtd">
<svg version="1.1" id="Warstwa_1" xmlns="http://www.w3.org/2000/svg" xmlns:xlink="http://www.w3.org/1999/xlink" x="0px" y="0px"
	 width="25.33px" height="54.787px" viewBox="0 0 25.33 54.787" enable-background="new 0 0 25.33 54.787" xml:space="preserve">
<path fill="#F06D5D" d="M14.606,54.725c1.202-0.198,2.254-0.853,2.964-1.843l0.911-1.271c0.08-0.11,0.055-0.267-0.057-0.348
	l-0.003-0.003l1.335-1.862c0.08-0.11,0.055-0.267-0.057-0.348l-0.003-0.003l3.34-4.658c0.039-0.054,0.057-0.121,0.044-0.187
	c-0.011-0.065-0.048-0.124-0.101-0.162l-0.004-0.003l0.858-1.196c0.053-0.073,0.062-0.169,0.022-0.252
	c-0.102-0.223,0.059-0.382,0.257-0.583c0.159-0.162,0.341-0.346,0.41-0.588c0.026-0.091,0.001-0.185-0.065-0.248
	c-0.027-0.027-0.045-0.048-0.055-0.056c0.021-0.021,0.054-0.048,0.078-0.067c0.092-0.074,0.223-0.181,0.264-0.344
	c0.024-0.031,0.053-0.064,0.08-0.098c0.111-0.132,0.236-0.281,0.294-0.445c0.05-0.143,0.031-0.209,0.009-0.374
	c0-0.001,0-0.019,0-0.037c0.114-0.023,0.2-0.124,0.2-0.245v-0.007c0-0.002,0-0.004,0-0.007s0-0.007,0-0.01h0.001
	c0-0.007-0.055-0.756-0.287-0.92c-0.008-0.005-0.625-0.448-0.789-0.566c-0.24-0.359-1.154-1.264-1.572-1.432
	c-0.531-0.393-0.996-0.724-1.324-0.832c-0.089-0.029-0.186-0.006-0.252,0.057c-0.071-0.021-0.148-0.027-0.227-0.005
	c-0.166,0.046-0.233,0.186-0.27,0.263c0,0,0,0.001,0,0.001c-0.107-0.038-0.207-0.044-0.302,0.006
	c-0.075,0.039-0.127,0.104-0.151,0.186l-0.299,0.407c-0.19,0.243-0.411,0.546-0.342,0.921l-0.658,0.916
	c-0.025-0.097-0.062-0.191-0.098-0.285c-0.047-0.124-0.097-0.252-0.097-0.339c0-0.001,0.007-0.081,0.007-0.082
	c-0.004-0.371-0.119-0.759-0.23-1.133c-0.171-0.577-0.301-1.124-0.1-1.471c0.031-0.053,0.042-0.115,0.029-0.175l-0.1-0.485
	l0.003-0.001c0.065-0.013,0.122-0.052,0.159-0.106c0.037-0.056,0.049-0.123,0.037-0.188l-1.311-6.458l0.003-0.001
	c0.136-0.028,0.221-0.163,0.195-0.295l-1.338-6.581c-0.013-0.064-0.052-0.122-0.107-0.158c-0.056-0.037-0.123-0.051-0.188-0.037
	l-0.003,0.001l-0.716-3.534c-0.013-0.064-0.052-0.122-0.107-0.158c-0.056-0.037-0.124-0.051-0.188-0.037l-0.003,0.001l-1.757-8.652
	c-0.013-0.065-0.052-0.122-0.108-0.159s-0.124-0.049-0.189-0.035h-0.001l-0.47-2.314c-0.015-0.072-0.06-0.133-0.124-0.169
	c-0.303-0.167-0.345-0.604-0.39-1.067C11.633,4.231,11.6,3.889,11.467,3.6c-0.039-0.087-0.125-0.144-0.221-0.146
	c-0.107-0.002-0.129-0.002-0.137-0.341c-0.004-0.181-0.009-0.383-0.105-0.55l-0.216-1.068c-0.01-0.048-0.021-0.098-0.036-0.139
	c-0.025-0.073-0.099-0.126-0.178-0.149c-0.037-0.083-0.092-0.142-0.133-0.187c-0.018-0.018-0.037-0.037-0.055-0.062
	c-0.035-0.046-0.037-0.062-0.047-0.116c-0.01-0.049-0.021-0.115-0.057-0.2c-0.045-0.103-0.459-0.698-0.83-0.638L8.525,0.194
	C8.078,0.061,6.791-0.007,6.35,0.253c-0.63,0.11-1.215,0.231-1.52,0.462c-0.078,0.058-0.115,0.153-0.096,0.25l0.012,0.051
	C4.59,1.129,4.561,1.281,4.561,1.376c0,0.104,0.033,0.2,0.059,0.276C4.637,1.706,4.67,1.749,4.713,1.78
	c-0.203,0.1-0.344,0.317-0.218,0.547L4.65,3.12c0.077,0.448,0.164,0.951,0.523,1.273L5.625,6.62C5.652,6.755,5.784,6.842,5.92,6.816
	l0.004-0.001l0.124,0.609C6.061,7.489,6.1,7.546,6.155,7.583C6.211,7.62,6.277,7.633,6.344,7.62l0.002-0.001l0.645,3.167
	c0.027,0.135,0.158,0.222,0.294,0.195l0.004-0.002l1.56,7.679c0.026,0.128,0.168,0.21,0.299,0.193l2.297,11.296
	c0.021,0.443,0.15,0.907,0.275,1.355c0.199,0.716,0.358,1.403,0.162,1.878c-0.008,0.02-0.014,0.04-0.017,0.062
	c-0.032,0.236,0.054,0.485,0.137,0.72c0.089,0.251,0.237,0.468,0.017,0.622c-0.082,0.058-0.122,0.156-0.102,0.254l0.114,0.568
	c-0.019,0.201,0.055,0.399,0.126,0.588c0.048,0.124,0.097,0.252,0.097,0.339c0,0.033,0,0.067-0.088,0.114
	c-0.098,0.052-0.153,0.165-0.127,0.271l0.077,0.356c0.173,0.794,0.276,1.521-0.041,1.993c-0.031,0.045-0.051,0.099-0.042,0.154
	c0.067,1.139,0.128,2.252,0.128,3.354c0,1.325-0.091,2.461-0.279,3.471c-0.006,0.033-0.007,0.064,0,0.096l0.07,0.34l-0.135-0.095
	c-0.212-0.243-0.5-0.405-0.779-0.562c-0.404-0.228-0.754-0.425-0.812-0.808c-0.004-0.024-0.012-0.049-0.023-0.072
	c-0.098-0.2-0.297-0.285-0.456-0.353c-0.247-0.106-0.237-0.085-0.183-0.231c0.037-0.108,0-0.224-0.09-0.288l-0.287-0.205
	c-0.094-0.147-0.257-0.211-0.38-0.26C8.758,43.79,8.68,43.758,8.67,43.759c0-0.005,0.002-0.036,0.033-0.103
	c0.051-0.109,0.016-0.238-0.082-0.308L8.422,43.21c-0.455-0.309-0.734-0.521-0.734-1.011c0-0.001,0-0.001,0-0.002
	c0.008-0.064-0.02-0.131-0.064-0.18c-1.153-1.275-2.082-2.361-2.665-3.744c-0.019-0.043-0.048-0.079-0.085-0.106l-0.801-0.575
	c-0.019-0.012-0.037-0.022-0.059-0.029c-0.235-0.087-0.389,0.08-0.47,0.197c-0.046,0.02-0.091,0.034-0.134,0.05
	c-0.248,0.087-0.527,0.184-0.933,0.738c-0.495,0.25-1.083,1.029-1.895,2.506c-0.167,0.31-0.267,0.535-0.317,0.719
	c-0.184,0.245-0.141,0.437-0.053,0.538c-0.029,0.037-0.074,0.09-0.143,0.162C0.025,42.52,0,42.582,0,42.646
	c0,0.008,0.001,0.015,0.002,0.022c0.006,0.072,0.043,0.138,0.102,0.18l0.259,0.188c0.021,0.017,0.044,0.101,0.058,0.155
	c0.031,0.112,0.079,0.289,0.222,0.409c-0.042,0.24,0.13,0.374,0.245,0.438c0.289,0.619,0.766,1.093,1.258,1.507
	c-0.092,0.289,0.139,0.448,0.229,0.496c0,0,0.019,0.013,0.034,0.023c-0.083,0.385,0.258,0.541,0.413,0.599
	c0.041,0.016,0.104,0.038,0.104,0.026c0.018,0.048,0.049,0.089,0.09,0.119l0.117,0.085c-0.08,0.396,0.269,0.556,0.443,0.624
	c0.047,0.019,0.127,0.05,0.139,0.057c0.009,0.022,0.021,0.043,0.035,0.062c0.172,0.22,0.422,0.353,0.662,0.48
	c0.37,0.197,0.597,0.333,0.602,0.625c0.002,0.079,0.039,0.152,0.104,0.199l0.196,0.142l-0.001,0.002
	c-0.078,0.11-0.055,0.267,0.058,0.348l3.459,2.481l-0.003,0.003c-0.078,0.111-0.055,0.267,0.057,0.348l2.328,1.668
	C12.198,54.641,13.405,54.923,14.606,54.725z"/>
</svg>
