<?xml version="1.0" encoding="utf-8"?>
<!-- Generator: Adobe Illustrator 16.0.0, SVG Export Plug-In . SVG Version: 6.00 Build 0)  -->
<!DOCTYPE svg PUBLIC "-//W3C//DTD SVG 1.1//EN" "http://www.w3.org/Graphics/SVG/1.1/DTD/svg11.dtd">
<svg version="1.1" id="Layer_1" xmlns="http://www.w3.org/2000/svg" xmlns:xlink="http://www.w3.org/1999/xlink" x="0px" y="0px"
	 width="141.684px" height="65.5px" viewBox="0 0 141.684 65.5" enable-background="new 0 0 141.684 65.5" xml:space="preserve">
<path fill="#FFFFFF" d="M141.524,27.727c-0.515-3.106-2.207-5.829-4.768-7.663l-3.288-2.358c-0.283-0.208-0.689-0.142-0.899,0.149
	l-0.007,0.007l-4.815-3.452c-0.283-0.207-0.689-0.144-0.899,0.146l-0.008,0.007l-12.043-8.637c-0.143-0.101-0.313-0.146-0.485-0.114
	c-0.167,0.028-0.321,0.124-0.419,0.26l-0.007,0.01l-3.094-2.217c-0.188-0.136-0.438-0.162-0.652-0.055
	c-0.576,0.262-0.987-0.154-1.508-0.667c-0.419-0.409-0.895-0.881-1.521-1.061c-0.234-0.066-0.478,0-0.642,0.169
	c-0.068,0.068-0.124,0.116-0.144,0.144c-0.056-0.056-0.126-0.141-0.175-0.202c-0.188-0.237-0.467-0.578-0.889-0.684
	c-0.081-0.063-0.164-0.137-0.255-0.207c-0.338-0.286-0.725-0.609-1.149-0.76c-0.371-0.129-0.541-0.081-0.967-0.023
	c-0.002,0-0.05,0-0.096,0c-0.062-0.295-0.321-0.518-0.634-0.518h-0.019c-0.005,0-0.01,0-0.018,0c-0.007,0-0.019,0-0.028,0V0
	c-0.015,0-1.955,0.144-2.379,0.742c-0.01,0.021-1.157,1.617-1.462,2.041c-0.929,0.619-3.271,2.982-3.705,4.063
	c-1.015,1.374-1.872,2.576-2.152,3.425c-0.072,0.232-0.015,0.482,0.149,0.651c-0.053,0.185-0.07,0.384-0.012,0.588
	c0.118,0.43,0.479,0.604,0.679,0.7h0.002c-0.099,0.275-0.114,0.536,0.015,0.778c0.102,0.197,0.271,0.328,0.482,0.394l1.053,0.773
	c0.626,0.49,1.409,1.061,2.379,0.884l2.369,1.702c-0.25,0.063-0.492,0.159-0.735,0.252c-0.32,0.121-0.653,0.25-0.876,0.25
	c-0.005,0-0.212-0.018-0.212-0.018c-0.959,0.01-1.965,0.308-2.93,0.596c-1.495,0.439-2.909,0.778-3.806,0.257
	c-0.137-0.081-0.295-0.108-0.452-0.076l-1.252,0.257l-0.005-0.005c-0.033-0.169-0.135-0.318-0.272-0.414
	c-0.146-0.093-0.317-0.126-0.487-0.093l-16.7,3.392l-0.002-0.01c-0.071-0.351-0.419-0.571-0.764-0.505l-17.019,3.459
	c-0.164,0.036-0.315,0.137-0.406,0.278c-0.096,0.146-0.134,0.318-0.096,0.485l0.002,0.01l-9.141,1.851
	c-0.167,0.033-0.314,0.134-0.408,0.275c-0.097,0.146-0.132,0.323-0.097,0.487l0.002,0.008l-22.373,4.544
	c-0.169,0.033-0.314,0.134-0.411,0.28c-0.097,0.144-0.126,0.321-0.092,0.487v0.002L15,34.01c-0.186,0.039-0.343,0.154-0.438,0.318
	c-0.432,0.787-1.561,0.895-2.758,1.01c-0.861,0.078-1.745,0.162-2.493,0.509c-0.225,0.098-0.374,0.323-0.378,0.569
	c-0.005,0.275-0.005,0.334-0.882,0.354c-0.467,0.011-0.99,0.022-1.421,0.272l-2.763,0.558c-0.124,0.024-0.252,0.053-0.358,0.094
	c-0.189,0.063-0.326,0.255-0.386,0.459c-0.215,0.097-0.366,0.237-0.482,0.343c-0.048,0.049-0.096,0.096-0.162,0.143
	c-0.119,0.091-0.159,0.096-0.301,0.124c-0.126,0.024-0.295,0.053-0.515,0.146c-0.269,0.116-1.807,1.188-1.652,2.147l0.493,2.396
	c-0.343,1.157-0.521,4.485,0.15,5.625c0.286,1.629,0.6,3.145,1.195,3.932c0.151,0.201,0.396,0.298,0.646,0.248l0.134-0.03
	c0.291,0.403,0.685,0.478,0.929,0.478c0.271,0,0.519-0.086,0.715-0.152c0.14-0.045,0.25-0.127,0.331-0.239
	c0.257,0.524,0.82,0.89,1.414,0.563l2.051-0.401c1.159-0.2,2.459-0.425,3.293-1.351l5.759-1.17c0.348-0.07,0.572-0.412,0.507-0.763
	l-0.002-0.01L19.2,49.86c0.169-0.035,0.315-0.137,0.411-0.277c0.097-0.145,0.13-0.316,0.097-0.49l-0.002-0.006l8.189-1.666
	c0.35-0.07,0.573-0.41,0.505-0.76l-0.005-0.011l19.857-4.036c0.331-0.066,0.543-0.435,0.5-0.773l29.212-5.939
	c1.144-0.053,2.344-0.389,3.503-0.712c1.851-0.513,3.629-0.924,4.856-0.417c0.051,0.021,0.104,0.036,0.161,0.043
	c0.609,0.083,1.253-0.139,1.861-0.354c0.649-0.229,1.209-0.614,1.609-0.045c0.148,0.211,0.403,0.315,0.655,0.265l1.471-0.296
	c0.52,0.049,1.029-0.141,1.52-0.325c0.318-0.124,0.652-0.25,0.876-0.25c0.083,0,0.174,0,0.295,0.228
	c0.135,0.252,0.424,0.394,0.7,0.328l0.922-0.199c2.05-0.447,3.933-0.715,5.152,0.105c0.116,0.081,0.257,0.131,0.398,0.109
	c2.945-0.174,5.824-0.332,8.673-0.332c3.43,0,6.363,0.236,8.978,0.723c0.083,0.016,0.164,0.018,0.248,0l0.881-0.182l-0.248,0.349
	c-0.629,0.548-1.045,1.293-1.455,2.015c-0.588,1.045-1.096,1.95-2.089,2.1c-0.062,0.01-0.126,0.033-0.184,0.061
	c-0.521,0.252-0.737,0.768-0.914,1.18c-0.273,0.64-0.221,0.613-0.597,0.473c-0.279-0.096-0.58,0-0.747,0.232l-0.53,0.742
	c-0.379,0.244-0.545,0.664-0.672,0.981c-0.045,0.129-0.129,0.329-0.126,0.356c-0.013,0-0.092-0.006-0.266-0.086
	c-0.283-0.132-0.615-0.043-0.795,0.211l-0.357,0.516c-0.799,1.177-1.35,1.896-2.614,1.896c-0.003,0-0.003,0-0.005,0
	c-0.167-0.021-0.341,0.053-0.467,0.168c-3.296,2.979-6.104,5.383-9.684,6.891c-0.111,0.049-0.202,0.125-0.271,0.221l-1.488,2.07
	c-0.03,0.049-0.058,0.097-0.073,0.152c-0.227,0.608,0.208,1.008,0.508,1.217c0.054,0.119,0.088,0.234,0.129,0.346
	c0.228,0.641,0.478,1.363,1.909,2.412c0.646,1.279,2.662,2.801,6.48,4.902c0.803,0.432,1.384,0.688,1.857,0.817
	c0.638,0.478,1.132,0.366,1.395,0.14c0.096,0.072,0.231,0.188,0.419,0.368c0.121,0.114,0.28,0.181,0.444,0.181
	c0.021,0,0.041-0.004,0.058-0.006c0.187-0.015,0.355-0.111,0.467-0.265l0.485-0.669c0.043-0.053,0.263-0.113,0.398-0.148
	c0.291-0.082,0.748-0.205,1.062-0.576c0.619,0.108,0.964-0.336,1.131-0.635c1.601-0.744,2.826-1.979,3.896-3.252
	c0.748,0.236,1.159-0.359,1.283-0.592c0,0,0.033-0.05,0.059-0.088c0.998,0.215,1.398-0.667,1.55-1.068
	c0.041-0.105,0.099-0.268,0.065-0.268c0.126-0.049,0.232-0.129,0.309-0.234l0.222-0.302c1.023,0.205,1.438-0.696,1.611-1.146
	c0.05-0.121,0.131-0.328,0.148-0.358c0.059-0.024,0.111-0.056,0.159-0.091c0.571-0.445,0.914-1.092,1.242-1.713
	c0.51-0.957,0.861-1.543,1.617-1.557c0.202-0.006,0.394-0.102,0.515-0.269l0.366-0.509l0.005,0.002
	c0.285,0.203,0.689,0.145,0.901-0.148l6.415-8.945l0.007,0.008c0.286,0.203,0.688,0.142,0.901-0.146l4.313-6.021
	C141.308,33.956,142.035,30.833,141.524,27.727z"/>
</svg>
