<?xml version="1.0" encoding="utf-8"?>
<!-- Generator: Adobe Illustrator 16.0.0, SVG Export Plug-In . SVG Version: 6.00 Build 0)  -->
<!DOCTYPE svg PUBLIC "-//W3C//DTD SVG 1.1//EN" "http://www.w3.org/Graphics/SVG/1.1/DTD/svg11.dtd">
<svg version="1.1" id="Layer_1" xmlns="http://www.w3.org/2000/svg" xmlns:xlink="http://www.w3.org/1999/xlink" x="0px" y="0px"
	 width="64px" height="64px" viewBox="0 0 64 64" enable-background="new 0 0 64 64" xml:space="preserve">
<g>
	<g>
		<circle fill="#FFFFFF" cx="88.656" cy="-303.922" r="31.5"/>
	</g>
	<g>
		<path fill="#5EC6B2" d="M102.789-314.977c0.562,0.562,0.844,1.266,0.844,2.109v18c0,0.844-0.281,1.547-0.844,2.109
			s-1.266,0.868-2.109,0.914H76.633c-0.844-0.046-1.547-0.352-2.109-0.914s-0.844-1.266-0.844-2.109v-18
			c0-0.844,0.281-1.547,0.844-2.109s1.266-0.867,2.109-0.914h24.047C101.523-315.843,102.227-315.539,102.789-314.977z
			 M100.68-312.867l-12.023,7.523l-12.023-7.523v3.023l12.023,7.453l12.023-7.453V-312.867z"/>
	</g>
</g>
<g>
	<g>
		<circle fill="#FFFFFF" cx="32" cy="31.871" r="31.5"/>
	</g>
	<g>
		<path fill="#5EC6B2" d="M44.445,26.301l0.07,0.844c-0.047,4.454-1.629,8.555-4.746,12.305c-3.118,3.751-7.653,5.742-13.605,5.977
			c-1.828,0-3.575-0.257-5.238-0.773c-1.665-0.516-3.199-1.219-4.605-2.109c0.515,0.047,1.03,0.07,1.547,0.07
			c1.5,0,2.929-0.234,4.289-0.703c1.359-0.468,2.577-1.148,3.656-2.039c-1.406-0.046-2.649-0.48-3.727-1.301
			c-1.079-0.819-1.828-1.887-2.25-3.199c0.375,0.095,0.773,0.141,1.195,0.141c0.608,0,1.171-0.07,1.688-0.211
			c-1.501-0.327-2.731-1.065-3.691-2.215c-0.961-1.148-1.441-2.519-1.441-4.113v-0.07c0.844,0.469,1.804,0.728,2.883,0.773
			c-0.844-0.562-1.524-1.312-2.039-2.25c-0.517-0.937-0.773-1.979-0.773-3.129c0-1.148,0.281-2.215,0.844-3.199
			c1.593,1.969,3.526,3.54,5.801,4.711c2.273,1.172,4.769,1.853,7.488,2.039c-0.141-0.468-0.211-0.96-0.211-1.477
			c0.046-1.828,0.679-3.351,1.898-4.57c1.219-1.218,2.718-1.851,4.5-1.898c1.969,0.047,3.562,0.728,4.781,2.039
			c1.452-0.281,2.812-0.796,4.078-1.547c-0.517,1.547-1.453,2.742-2.812,3.586c1.266-0.187,2.484-0.538,3.656-1.055
			C46.789,24.239,45.711,25.364,44.445,26.301z"/>
	</g>
</g>
</svg>
