<?xml version="1.0" encoding="utf-8"?>
<!-- Generator: Adobe Illustrator 16.0.0, SVG Export Plug-In . SVG Version: 6.00 Build 0)  -->
<!DOCTYPE svg PUBLIC "-//W3C//DTD SVG 1.1//EN" "http://www.w3.org/Graphics/SVG/1.1/DTD/svg11.dtd">
<svg version="1.1" id="Layer_1" xmlns="http://www.w3.org/2000/svg" xmlns:xlink="http://www.w3.org/1999/xlink" x="0px" y="0px"
	 width="64px" height="64px" viewBox="0 0 64 64" enable-background="new 0 0 64 64" xml:space="preserve">
<g>
	<g>
		<circle fill="#FFFFFF" cx="88.656" cy="-303.922" r="31.5"/>
	</g>
	<g>
		<path fill="#5EC6B2" d="M102.789-314.977c0.562,0.562,0.844,1.266,0.844,2.109v18c0,0.844-0.281,1.547-0.844,2.109
			s-1.266,0.868-2.109,0.914H76.633c-0.844-0.046-1.547-0.352-2.109-0.914s-0.844-1.266-0.844-2.109v-18
			c0-0.844,0.281-1.547,0.844-2.109s1.266-0.867,2.109-0.914h24.047C101.523-315.843,102.227-315.539,102.789-314.977z
			 M100.68-312.867l-12.023,7.523l-12.023-7.523v3.023l12.023,7.453l12.023-7.453V-312.867z"/>
	</g>
</g>
<g>
	<g>
		<circle fill="#FFFFFF" cx="32" cy="32" r="31.5"/>
	</g>
	<g>
		<path fill="#5EC6B2" d="M46.133,20.945c0.562,0.562,0.844,1.266,0.844,2.109v18c0,0.844-0.281,1.547-0.844,2.109
			s-1.266,0.868-2.109,0.914H19.976c-0.844-0.046-1.547-0.352-2.109-0.914s-0.844-1.266-0.844-2.109v-18
			c0-0.844,0.281-1.547,0.844-2.109s1.266-0.867,2.109-0.914h24.047C44.867,20.079,45.57,20.383,46.133,20.945z M44.023,23.055
			L32,30.578l-12.023-7.523v3.023L32,33.531l12.024-7.453V23.055z"/>
	</g>
</g>
</svg>
