<?xml version="1.0" encoding="utf-8"?>
<!-- Generator: Adobe Illustrator 16.0.0, SVG Export Plug-In . SVG Version: 6.00 Build 0)  -->
<!DOCTYPE svg PUBLIC "-//W3C//DTD SVG 1.1//EN" "http://www.w3.org/Graphics/SVG/1.1/DTD/svg11.dtd">
<svg version="1.1" id="Layer_1" xmlns="http://www.w3.org/2000/svg" xmlns:xlink="http://www.w3.org/1999/xlink" x="0px" y="0px"
	 width="64px" height="64px" viewBox="0 0 64 64" enable-background="new 0 0 64 64" xml:space="preserve">
<g>
	<g>
		<circle fill="#FFFFFF" cx="88.656" cy="-303.922" r="31.5"/>
	</g>
	<g>
		<path fill="#5EC6B2" d="M102.789-314.977c0.562,0.562,0.844,1.266,0.844,2.109v18c0,0.844-0.281,1.547-0.844,2.109
			s-1.266,0.868-2.109,0.914H76.633c-0.844-0.046-1.547-0.352-2.109-0.914s-0.844-1.266-0.844-2.109v-18
			c0-0.844,0.281-1.547,0.844-2.109s1.266-0.867,2.109-0.914h24.047C101.523-315.843,102.227-315.539,102.789-314.977z
			 M100.68-312.867l-12.023,7.523l-12.023-7.523v3.023l12.023,7.453l12.023-7.453V-312.867z"/>
	</g>
</g>
<g>
	<g>
		<circle fill="#FFFFFF" cx="32" cy="32" r="31.5"/>
	</g>
	<g>
		<path fill="#5EC6B2" d="M45.781,27.906c1.593,5.062,1.663,8.941,0.211,11.637c-1.453,2.696-4.735,4.793-9.844,6.293
			c-5.062,1.593-8.942,1.663-11.637,0.211c-2.696-1.452-4.793-4.734-6.293-9.844c-1.594-5.062-1.665-8.94-0.211-11.637
			c1.452-2.695,4.734-4.792,9.844-6.293c5.062-1.593,8.94-1.663,11.637-0.211C42.184,19.516,44.28,22.798,45.781,27.906z
			 M40.508,34.586c0.422-0.141,0.727-0.397,0.914-0.773c0.187-0.375,0.211-0.762,0.07-1.16c-0.141-0.397-0.398-0.691-0.773-0.879
			c-0.376-0.187-0.773-0.211-1.195-0.07l-1.898,0.633l-1.336-3.867l1.969-0.633c0.422-0.141,0.727-0.397,0.914-0.773
			c0.187-0.375,0.211-0.773,0.07-1.195s-0.398-0.726-0.773-0.914c-0.376-0.187-0.773-0.211-1.195-0.07l-1.969,0.633l-0.633-2.039
			c-0.188-0.375-0.457-0.656-0.809-0.844c-0.352-0.187-0.738-0.211-1.16-0.07s-0.728,0.399-0.914,0.773
			c-0.188,0.376-0.211,0.75-0.07,1.125l0.633,2.039l-4.008,1.336l-0.633-2.039c-0.188-0.375-0.457-0.656-0.809-0.844
			c-0.352-0.187-0.738-0.211-1.16-0.07s-0.728,0.399-0.914,0.773c-0.188,0.376-0.211,0.75-0.07,1.125l0.633,2.039l-1.898,0.703
			c-0.422,0.141-0.728,0.399-0.914,0.773c-0.188,0.376-0.211,0.75-0.07,1.125c0.093,0.329,0.269,0.587,0.527,0.773
			c0.257,0.188,0.55,0.306,0.879,0.352l0.562-0.141l1.898-0.633l1.336,3.867l-1.969,0.633c-0.422,0.141-0.728,0.398-0.914,0.773
			c-0.188,0.376-0.211,0.773-0.07,1.195c0.281,0.657,0.749,1.009,1.406,1.055l0.562-0.07l1.969-0.633l0.633,2.039
			c0.281,0.657,0.773,1.009,1.477,1.055l0.492-0.141c0.422-0.141,0.727-0.387,0.914-0.738c0.187-0.352,0.211-0.738,0.07-1.16
			l-0.633-2.039l4.008-1.336l0.633,2.039c0.141,0.281,0.34,0.517,0.598,0.703c0.257,0.188,0.551,0.281,0.879,0.281l0.492-0.07
			c0.422-0.141,0.727-0.397,0.914-0.773c0.187-0.375,0.211-0.749,0.07-1.125l-0.633-2.039L40.508,34.586z M29.328,30.789
			l4.008-1.336l1.336,3.867l-4.008,1.336L29.328,30.789z"/>
	</g>
</g>
</svg>
